# xmcd
#
# Track frame offsets:
#	180
#	12717
#	24364
#	39395
#	51055
#	62530
#	72759
#	82631
#	93985
#	104147
#	114938
#	124955
#	138163
#	150329
#	165151
#	178004
#	192359
#	207671
#	222716
#	233778
#
# Disc length: 3312 seconds
#
# Revision: 0
# Processed by: cddbd v1.5PL3 Copyright (c) Steve Scherf et al.
# Submitted via: dBpowerAMP V4.0
#
DISCID=0c0cee14
DTITLE=Charles Trenet - Collection Retro
DYEAR=1900
DGENRE=Chanson
TTITLE0=Je chante
TTITLE1=J'ai ta main
TTITLE2=Pigeon vole
TTITLE3=Fleur Bleue
TTITLE4=Boum !
TTITLE5=Vous etes jolie
TTITLE6=Le Grand Café
TTITLE7=Y'a de la joie
TTITLE8=La biguine à bango
TTITLE9=Le soleil et la lune
TTITLE10=Un rien me fait chanter
TTITLE11=Jardins du moi de mai
TTITLE12=Mam'zelle Clio
TTITLE13=Menilmontant
TTITLE14=La romance de Paris
TTITLE15=Verlaine
TTITLE16=Bonsoir, jolie madame
TTITLE17=Swing troubadour
TTITLE18=Debit de l'eau, débit de lait
TTITLE19=Que reste-t'il de nos amours
EXTD=french songs
EXTT0=
EXTT1=
EXTT2=
EXTT3=
EXTT4=
EXTT5=
EXTT6=
EXTT7=
EXTT8=
EXTT9=
EXTT10=
EXTT11=
EXTT12=
EXTT13=
EXTT14=
EXTT15=
EXTT16=
EXTT17=
EXTT18=
EXTT19=
PLAYORDER=
